<svg width="1000" height="177" viewBox="0 0 1000 177" fill="none" xmlns="http://www.w3.org/2000/svg">
<path d="M311.673 56.0139L266.044 109.238L310.063 174.165H266.438L225.378 108.961V174.165H184.872L184.845 56.0139H225.351L225.378 108.73L265.454 56.0139H311.69H311.673ZM382.162 151.81C399.773 151.81 404.77 134.82 404.833 114.497C404.779 94.1825 399.773 77.1929 382.162 77.1929C362.7 77.1929 358.856 96.9368 358.802 114.497C358.856 132.066 362.7 151.81 382.162 151.81ZM381.813 52.0027C428.737 52.0027 449.379 78.3071 449.433 114.497C449.388 150.696 428.737 177 381.813 177C334.889 177 314.247 150.696 314.193 114.497C314.238 78.3071 334.889 52.0027 381.813 52.0027ZM163.399 56.0228C159.242 25.3952 136.115 0 85.1861 0C27.1498 0 0.0715173 36.68 0 87.8092C0.0715173 138.938 20.3199 177 85.1861 177C135.248 177 159.046 152.104 163.185 121.664H113.516C109.556 137.343 101.304 146.497 85.6331 146.497C54.1833 146.497 49.7135 112.634 49.6509 87.8092C49.7224 62.9844 55.408 30.0749 85.6778 30.0749C101.483 30.0749 109.725 40.2544 113.632 56.0139H163.408L163.399 56.0228ZM775.069 100.262C775.543 94.6193 777.188 75.5439 796.542 75.5439C815.897 75.5439 817.318 93.4248 817.792 100.262H775.069ZM859.576 124.266C859.576 103.551 858.154 92.2571 852.96 82.1311C844.941 65.4268 829.592 51.9938 796.542 51.9938C752.872 51.9938 733.509 77.6564 733.509 117.198C733.509 156.739 755.706 176.991 797.007 176.991C827.697 176.991 855.553 165.457 858.869 135.792H817.541C816.37 146.854 809.04 152.977 797.248 152.977C774.586 152.977 774.586 130.613 774.586 124.257H859.567L859.576 124.266ZM724.202 56.0139H609.676V84.2972H647.089V174.165H686.835C686.835 143.654 686.781 114.622 686.781 84.2972H724.193V56.0139H724.202ZM956.267 56.0139L934.177 88.0231L912.087 56.0139H868.122L909.325 113.258L865.467 174.165H905.07L930.485 138.876L955.373 174.165H1000L954.247 110.058L996.835 56.0139H956.267ZM590.483 56.0139H483.913V120.71C483.913 134.366 479.89 138.644 479.086 139.714C473.981 145.062 465.658 144.536 460.563 143.181V173.702C465.39 175.039 470.495 175.574 475.59 175.574C486.059 175.574 498.145 174.513 508.613 162.997C514.782 156.311 520.414 145.062 520.414 122.314V84.2972H551.828V173.978H590.483V56.0139Z" fill="#F2EFE9"/>
</svg>
