<svg xmlns="http://www.w3.org/2000/svg" version="1.1" viewBox="0 0 151.9 26.2">
  
  <defs>
    <style>
      .st0 {
        fill: #F2EFE9;
      }
    </style>
  </defs>
  <path class="st0" d="M42,8.1c-.9-1.5-2-2.7-3.5-3.9-1.4-1.1-2.9-2-4.6-2.7-1.2-.5-2.9-1.2-5-1.4-.3,0-.6,0-.9,0h-1c-2.9.2-5.1,1.2-6.8,3.2-.3.4-.5.7-.8,1.1-1.1,1.9-1.7,4-1.8,6.3,0,0,0,0,0,0-1.7-.9-3.6-1.7-5.6-2.2-2-.5-4.7-1-7.2-.5-1.1.2-2.2.5-3,1.1-.8.5-1.5,1.3-1.8,2.3-.3,1.2,0,2.4.5,3.3.4,1,1,1.7,1.6,2.4,1.2,1.5,2.7,2.7,4.4,3.7,1.6,1.1,3.4,2,5.3,2.8,1.9.8,3.9,1.5,6.2,1.9,2,.4,4.7.7,7,.3,0,0,.1,0,.2,0h.2c0,0,0,0,0,0,0,0,.2,0,.3,0,0,0,.1,0,.2,0,0,0,.2,0,.2,0,0,0,.1,0,.2,0,0,0,.2,0,.2,0,0,0,0,0,0,0h.2c.3,0,.6,0,.9,0s.3,0,.5,0c.5,0,1-.1,1.6-.3,1.5-.4,2.7-1,3.9-1.6.4-.2.8-.4,1.3-.6.1,0,.3-.1.4-.2,0,0,.1,0,.2,0,0,0,.2,0,.3-.1.1,0,.3-.1.4-.2,0,0,0,0,.1,0,0,0,0,0,.1,0,.3-.2.6-.3.9-.5,2.5-1.6,4.3-3.4,5.4-5.7.5-.9.7-1.9.8-2.9.2-2-.3-3.9-1.4-5.8ZM22,23.3c-.4-.4-.8-.8-1.2-1.4-.4-.6-.8-1.2-1.1-1.9-.2-.7-.4-1.4-.6-2.4-.1-.7-.2-1.5-.3-2.3.9,1.2,2,2.3,3.4,3.3,0,0,.1,0,.2.1.1,0,.2.2.3.3-.2.6-.3,1.3-.4,2v.2c0,.2,0,.3-.1.5-.1.5-.2,1-.2,1.6ZM37.7,10c.3,1.4.4,2.9.2,4.1-.2,1.2-.6,2.3-1.1,3.3-3.5-.8-6.7-2.2-10.3-4.6,1.3-2.3,2.7-4.2,4.2-5.7.2-.2.5-.5.9-.8.3-.2.6-.5,1-.6,0,0,.2,0,.3,0,0,0,.1,0,.2.1,0,0,0,0,.1,0,.4.3.8.5,1.1.6.2,0,.3.1.5.2.1,0,.3,0,.4.1.3,0,.6.2.8.3.8.5,1.3,1.4,1.7,2.8ZM23.9,18.8c.6-2,1.3-3.6,2.2-5.1,2.5,1.6,5.9,3.5,10.3,4.6,0,0,0,0,0,0-.2.3-.4.7-.8,1.1-.9,1.2-2,2.3-3.2,3.2-2.9-.7-5.5-1.9-8.5-3.8ZM20.2,5.7h0c1.2-1.8,2.9-2.9,5-3.2.5,0,1-.1,1.5-.1s1.2,0,1.7.2c1.1.3,2.1.8,2.9,1.6h0c.3.3.6.7.9,1.1-.5,0-1,.3-1.4.6-1.1.7-1.9,1.6-2.6,2.5-1.1,1.2-2,2.5-2.8,3.9-1.6-1.2-3.3-2.5-4.5-4.2-.3-.4-.6-.9-.8-1.4-.1-.3-.2-.5-.2-.5,0,0,.1-.2.2-.3ZM39,6.5c-.7-.3-1.7-.5-2.8-.5s-1.1,0-1.6.2c0,0-.1,0-.2,0,0,0,0,0-.1,0,0,0,0,0,0,0,.5-.5,1.2-1.1,1.9-1.5.4-.2.9-.5,1.3-.3.1,0,.3.2.4.3,0,0,.1.1.2.2,1.2.9,2.2,2,3,3.1-.6-.6-1.3-1-2.2-1.3ZM35,4.6c-.4.4-.7.7-1.1,1.1,0,0-.1.1-.2.2,0,0-.1,0-.2-.1,0,0,0,0-.1,0-.1-2-.7-3.4-1.6-4.3,1.5.5,3,1.2,4.7,2.2-.6.2-1,.6-1.5,1ZM32.8,5.3c0,0,0-.2,0-.2h0c-.3-.6-.7-1-1.1-1.4-.4-.4-.9-.8-1.4-1.1-1.1-.6-2.6-.9-4.1-.8-2.4.1-4.4,1-5.8,2.7,0-.1.2-.3.3-.4.6-.8,1.3-1.5,2.2-2.1,1.2-.8,2.7-1.2,4.5-1.3.8,0,1.8,0,2.5.2.8.2,1.4.6,1.7.9.4.4.7.9,1,1.6.2.6.4,1.3.5,1.9,0,0-.1,0-.2-.1ZM23,18.2c-.1,0-.2-.2-.3-.3,0,0-.1-.1-.2-.2-1.4-1-2.3-2-3.1-3-.3-.4-.5-.8-.7-1.1h0c0-.2-.1-.3-.1-.4,0-.2,0-.4,0-.7,0,0,0-.2,0-.3,0-1.7.2-3.1.5-4.2.1-.4.3-.8.5-1.1.5,1.4,1.5,2.5,2.4,3.4.9.9,1.9,1.7,3.2,2.7-.8,1.6-1.5,3.3-2,5.2ZM22.8,24c0-.1,0-.4,0-.6,0-.5.2-.9.3-1.3,0-.1,0-.3,0-.4.2-.8.4-1.4.6-2.1,2.8,1.8,5.2,2.9,7.9,3.6-.6.4-1.3.9-2.2,1.4-.6.3-1.2.7-2,.9,0,0-.1,0-.2,0-.2,0-.4.1-.6.1-.2,0-.4,0-.5,0h0c-.9-.2-1.6-.6-2.5-1,0,0-.1,0-.2,0,0,0-.2,0-.3-.2,0,0,0,0,0,0,0,0-.3-.2-.3-.2ZM30.1,24.8l.3-.2h0c.7-.4,1.5-.8,2.3-1.4.4,0,1,.1,1.6.1-.2.1-.4.2-.7.3-.7.3-1.3.6-2,.9-.8.3-1.8.7-2.9.9.5-.2,1-.5,1.4-.7ZM37.5,18.5c1.2.2,2.8.2,3.7-.2-.7,1.1-1.7,2-3,3h0c-.6.5-1.3.9-2,1.3-.7.3-1.8.3-2.6.2,1.8-1.3,3.1-2.7,4-4.3ZM37.9,17.6c.5-1,1.5-3.7.9-6.7-.2-1.2-.6-2.2-1.2-3-.5-.7-1.1-1.2-1.9-1.5,1.2,0,2.5.2,3.5.6,1.5.7,2.6,2,3.4,3.9.1.3.2.6.3.9.3,1.6,0,3.2-.5,4.1,0,0,0,.1,0,.2,0,.2-.2.5-.3.7-.7.9-2.6,1-4.1.7,0,0,0,0,0,0ZM17.9,14h0c0,.7.2,1.2.2,1.7.1,1,.3,2.1.5,3.1h0c-.8.5-1.8.6-2.9.4-1.1-.1-2-.4-2.8-.8-.8-.3-1.5-.8-2.2-1.4-.3-.3-.6-.5-.9-.9-.2-.3-.5-.8-.5-1.2,0-1,.6-1.5,1.3-1.8.8-.3,1.9-.1,2.7,0,.7.2,1.5.6,2.1,1,.3.2.6.4.8.7.2.3.4.7.4,1.2,0,.5-.4.9-.9,1-.9.3-2-.1-2.6-.4-.2-.1-.5-.3-.6-.4-.2-.2-.3-.4-.3-.9,0-.2,0-.3.2-.5,0,0-.2-.2-.3-.3,0,0-.2-.2-.3-.2-.3,0-.6.2-.6.4,0,.3.1.7.3.9.2.3.4.4.6.6.4.3,1,.7,1.6.9.6.2,1.3.4,2.1.4s1.9-.2,1.9-1.2c0-.5-.3-.9-.5-1.2-.3-.3-.6-.6-.9-.9-.7-.5-1.5-.9-2.3-1.2-.4-.2-.9-.3-1.4-.4-1.5-.3-3.5-.3-4.1.9-.3.7,0,1.5.4,2,.8,1.2,2.1,2.1,3.4,2.7.9.5,1.9.8,3,1.1,1.1.2,2.4.4,3.5,0h0c.2.8.5,1.5.8,2-2.2.2-4.2-.3-5.9-.8-1.7-.6-3.3-1.4-4.6-2.4-.7-.5-1.3-1-1.8-1.7-.5-.6-1-1.4-1.1-2.4-.2-1.7,1-2.5,2.3-2.9.2,0,.5-.1.7-.2,1.1-.2,2.3,0,3.3.2,1.5.3,2.7.9,3.9,1.5.5.3,1,.6,1.4,1ZM18.9,25.3c-1.7-.3-3.3-.6-4.8-1.1-2.9-1-5.6-2.3-7.8-3.9-1.7-1.2-3.3-2.6-4.4-4.5-.4-.6-.7-1.3-.8-2.1-.4-1.9.5-3.3,1.6-4.1,1-.7,2.3-1.1,3.9-1.3,2.4-.2,4.7.3,6.6.8,1.7.5,3.2,1.2,4.6,1.9h0c0,.1,0,.2,0,.3,0,.3,0,.8,0,1,0,0,0,0,0,.1,0,.3,0,.8,0,1.1-1-.6-2.1-1.3-3.3-1.7-1.3-.5-2.7-.9-4.2-1-1.7-.1-3.3.2-4.2.9-.5.4-.9,1-.9,1.7,0,.8.3,1.4.6,2,.9,1.6,2.5,2.8,4.1,3.8,1.6,1,3.4,1.8,5.5,2.3,1.4.3,2.8.6,4.5.5h0c0,0,0,0,0,0,0,0,0,0,.1.2,0,0,0,0,0,0,.6.9,1.5,1.5,2.3,2.1,0,0,.1,0,.2.1,0,0,0,0,.1,0,.1,0,.2.1.4.2.3.2.7.4,1.1.5-1.7.3-3.6.2-5.3,0Z"/>
  <g>
    <path class="st0" d="M57.6,12.2c-.1-2.2-1.9-2.9-3.5-2.9s-3.2.3-3.2,2.5.6,1.5,3.5,2.2c4.3,1,5.4,1.9,5.4,4.3s-3.1,4.3-5.5,4.3c-4.7,0-5.7-2.9-5.7-4.9h1.8c0,2.6,2.1,3.3,3.9,3.3s3.7-.3,3.7-2.4-.3-2-4.9-2.9c-2.5-.5-4-1.3-4-3.6s1.4-4.4,4.9-4.4c4.9,0,5.4,3,5.5,4.5h-1.8Z"/>
    <polygon class="st0" points="63.6 14.9 70.5 8 73.1 8 67.2 13.7 73.3 22.1 70.8 22.1 65.8 15.1 63.6 17.2 63.6 22.1 61.7 22.1 61.7 8 63.6 8 63.6 14.9"/>
    <path class="st0" d="M80.8,22.5c-5.3,0-6.9-4.4-6.9-7.4s1.6-7.4,6.9-7.4,6.9,4.4,6.9,7.4-1.6,7.4-6.9,7.4M80.8,9.3c-3.1,0-4.9,2.4-4.9,5.7s1.8,5.8,4.9,5.8,4.9-2.4,4.9-5.7-1.8-5.7-4.9-5.7"/>
    <polygon class="st0" points="91.4 20.4 98.6 20.4 98.6 22.1 89.5 22.1 89.5 8 91.4 8 91.4 20.4"/>
    <polygon class="st0" points="101.9 14.9 108.7 8 111.4 8 105.5 13.7 111.5 22.1 109.1 22.1 104.1 15.1 101.9 17.2 101.9 22.1 100 22.1 100 8 101.9 8 101.9 14.9"/>
    <path class="st0" d="M119,22.5c-5.3,0-6.9-4.4-6.9-7.4s1.6-7.4,6.9-7.4,6.9,4.4,6.9,7.4-1.6,7.4-6.9,7.4M119,9.3c-3.1,0-4.9,2.4-4.9,5.7s1.8,5.8,4.9,5.8,4.9-2.4,4.9-5.7-1.8-5.7-4.9-5.7"/>
    <polygon class="st0" points="136 8 138.2 8 133.1 22.1 131 22.1 125.9 8 128 8 132 20.1 132.1 20.1 136 8"/>
    <path class="st0" d="M145,22.5c-5.3,0-6.9-4.4-6.9-7.4s1.6-7.4,6.9-7.4,6.9,4.4,6.9,7.4-1.6,7.4-6.9,7.4M145,9.3c-3.1,0-4.9,2.4-4.9,5.7s1.8,5.8,4.9,5.8,4.9-2.4,4.9-5.7-1.8-5.7-4.9-5.7"/>
  </g>
</svg>
